<mxfile host="app.diagrams.net" modified="2020-08-26T14:33:03.256Z" agent="5.0 (Macintosh; Intel Mac OS X 10_14_5) AppleWebKit/537.36 (KHTML, like Gecko) Chrome/84.0.4147.89 Safari/537.36" etag="jm5n6WqTBxjNIePKQYyH" version="13.6.5" type="github" pages="2">
  <diagram name="Page-1" id="54c02804-9d69-ba3f-8aca-1021b27b8050">
    <mxGraphModel dx="1186" dy="724" grid="1" gridSize="10" guides="1" tooltips="1" connect="1" arrows="1" fold="1" page="1" pageScale="1" pageWidth="1100" pageHeight="850" background="#ffffff" math="0" shadow="0">
      <root>
        <mxCell id="0" />
        <mxCell id="1" parent="0" />
        <mxCell id="7c3a617817c5cf35-16" value="" style="html=1;shadow=0;dashed=0;align=center;verticalAlign=middle;shape=mxgraph.arrows2.arrow;dy=0.6;dx=40;direction=north;notch=0;strokeWidth=2;fillColor=#CCCCCC;fontSize=14;fontColor=#000000;strokeColor=none;" parent="1" vertex="1">
          <mxGeometry x="73" y="595" width="160" height="60" as="geometry" />
        </mxCell>
        <mxCell id="7c3a617817c5cf35-4" value="2017" style="verticalLabelPosition=bottom;verticalAlign=top;html=1;shape=mxgraph.infographic.shadedCube;isoAngle=15;fillColor=#10739E;strokeColor=none;fontFamily=Helvetica;fontSize=20;align=center;strokeWidth=2;" parent="1" vertex="1">
          <mxGeometry x="93" y="445" width="120" height="110" as="geometry" />
        </mxCell>
        <mxCell id="7c3a617817c5cf35-7" value="2018" style="verticalLabelPosition=bottom;verticalAlign=top;html=1;shape=mxgraph.infographic.shadedCube;isoAngle=15;fillColor=#F2931E;strokeColor=none;fontFamily=Helvetica;fontSize=20;align=center;strokeWidth=2;" parent="1" vertex="1">
          <mxGeometry x="293" y="415" width="120" height="140" as="geometry" />
        </mxCell>
        <mxCell id="7c3a617817c5cf35-8" value="2019" style="verticalLabelPosition=bottom;verticalAlign=top;html=1;shape=mxgraph.infographic.shadedCube;isoAngle=15;fillColor=#AE4132;strokeColor=none;fontFamily=Helvetica;fontSize=20;align=center;strokeWidth=2;" parent="1" vertex="1">
          <mxGeometry x="493" y="365" width="120" height="190" as="geometry" />
        </mxCell>
        <mxCell id="7c3a617817c5cf35-9" value="2020" style="verticalLabelPosition=bottom;verticalAlign=top;html=1;shape=mxgraph.infographic.shadedCube;isoAngle=15;fillColor=#23445D;strokeColor=none;fontFamily=Helvetica;fontSize=20;align=center;strokeWidth=2;" parent="1" vertex="1">
          <mxGeometry x="693" y="274.9999999999999" width="120" height="280" as="geometry" />
        </mxCell>
        <mxCell id="7c3a617817c5cf35-10" value="2021" style="verticalLabelPosition=bottom;verticalAlign=top;html=1;shape=mxgraph.infographic.shadedCube;isoAngle=15;fillColor=#12AAB5;strokeColor=none;fontFamily=Helvetica;fontSize=20;align=center;strokeWidth=2;" parent="1" vertex="1">
          <mxGeometry x="893" y="184.99999999999986" width="120" height="370" as="geometry" />
        </mxCell>
        <mxCell id="7c3a617817c5cf35-11" value="&lt;h1&gt;Heading&lt;/h1&gt;&lt;p&gt;Lorem ipsum dolor sit amet, consectetur adipisicing elit, sed do eiusmod tempor incididunt ut labore et dolore magna aliqua.&lt;/p&gt;" style="text;html=1;spacing=5;spacingTop=-20;whiteSpace=wrap;overflow=hidden;strokeWidth=2;fillColor=none;gradientColor=none;fontSize=14;align=center;" parent="1" vertex="1">
          <mxGeometry x="18" y="655" width="270" height="140" as="geometry" />
        </mxCell>
        <mxCell id="7c3a617817c5cf35-12" value="&lt;h1&gt;Heading&lt;/h1&gt;&lt;p&gt;Lorem ipsum dolor sit amet, consectetur adipisicing elit, sed do eiusmod tempor incididunt ut labore et dolore magna aliqua.&lt;/p&gt;" style="text;html=1;spacing=5;spacingTop=-20;whiteSpace=wrap;overflow=hidden;strokeWidth=2;fillColor=none;gradientColor=none;fontSize=14;align=center;" parent="1" vertex="1">
          <mxGeometry x="215" y="205" width="270" height="140" as="geometry" />
        </mxCell>
        <mxCell id="7c3a617817c5cf35-13" value="&lt;h1&gt;Heading&lt;/h1&gt;&lt;p&gt;Lorem ipsum dolor sit amet, consectetur adipisicing elit, sed do eiusmod tempor incididunt ut labore et dolore magna aliqua.&lt;/p&gt;" style="text;html=1;spacing=5;spacingTop=-20;whiteSpace=wrap;overflow=hidden;strokeWidth=2;fillColor=none;gradientColor=none;fontSize=14;align=center;" parent="1" vertex="1">
          <mxGeometry x="419" y="655" width="270" height="140" as="geometry" />
        </mxCell>
        <mxCell id="7c3a617817c5cf35-14" value="&lt;h1&gt;Heading&lt;/h1&gt;&lt;p&gt;Lorem ipsum dolor sit amet, consectetur adipisicing elit, sed do eiusmod tempor incididunt ut labore et dolore magna aliqua.&lt;/p&gt;" style="text;html=1;spacing=5;spacingTop=-20;whiteSpace=wrap;overflow=hidden;strokeWidth=2;fillColor=none;gradientColor=none;fontSize=14;align=center;" parent="1" vertex="1">
          <mxGeometry x="819" y="655" width="270" height="140" as="geometry" />
        </mxCell>
        <mxCell id="7c3a617817c5cf35-15" value="&lt;h1&gt;Heading&lt;/h1&gt;&lt;p&gt;Lorem ipsum dolor sit amet, consectetur adipisicing elit, sed do eiusmod tempor incididunt ut labore et dolore magna aliqua.&lt;/p&gt;" style="text;html=1;spacing=5;spacingTop=-20;whiteSpace=wrap;overflow=hidden;strokeWidth=2;fillColor=none;gradientColor=none;fontSize=14;align=center;" parent="1" vertex="1">
          <mxGeometry x="613" y="55" width="270" height="140" as="geometry" />
        </mxCell>
        <mxCell id="7c3a617817c5cf35-18" value="" style="html=1;shadow=0;dashed=0;align=center;verticalAlign=middle;shape=mxgraph.arrows2.arrow;dy=0.6;dx=40;direction=north;notch=0;strokeWidth=2;fillColor=#CCCCCC;fontSize=14;fontColor=#000000;strokeColor=none;" parent="1" vertex="1">
          <mxGeometry x="474" y="595" width="160" height="60" as="geometry" />
        </mxCell>
        <mxCell id="7c3a617817c5cf35-19" value="" style="html=1;shadow=0;dashed=0;align=center;verticalAlign=middle;shape=mxgraph.arrows2.arrow;dy=0.6;dx=40;direction=north;notch=0;strokeWidth=2;fillColor=#CCCCCC;fontSize=14;fontColor=#000000;strokeColor=none;" parent="1" vertex="1">
          <mxGeometry x="874" y="595" width="160" height="60" as="geometry" />
        </mxCell>
        <mxCell id="7c3a617817c5cf35-20" value="" style="html=1;shadow=0;dashed=0;align=center;verticalAlign=middle;shape=mxgraph.arrows2.arrow;dy=0.6;dx=40;direction=north;notch=0;strokeWidth=2;fillColor=#CCCCCC;fontSize=14;fontColor=#000000;strokeColor=none;flipV=1;" parent="1" vertex="1">
          <mxGeometry x="275" y="340" width="160" height="60" as="geometry" />
        </mxCell>
        <mxCell id="7c3a617817c5cf35-21" value="" style="html=1;shadow=0;dashed=0;align=center;verticalAlign=middle;shape=mxgraph.arrows2.arrow;dy=0.6;dx=40;direction=north;notch=0;strokeWidth=2;fillColor=#CCCCCC;fontSize=14;fontColor=#000000;strokeColor=none;flipV=1;" parent="1" vertex="1">
          <mxGeometry x="673" y="195" width="160" height="60" as="geometry" />
        </mxCell>
      </root>
    </mxGraphModel>
  </diagram>
  <diagram id="DOaQdNVHPchY7Esx70kp" name="Page-2">
    <mxGraphModel dx="1426" dy="773" grid="1" gridSize="10" guides="1" tooltips="1" connect="1" arrows="1" fold="1" page="1" pageScale="1" pageWidth="827" pageHeight="1169" math="0" shadow="0">
      <root>
        <mxCell id="vCOpxWqH2UBHc9q8i3iW-0" />
        <mxCell id="vCOpxWqH2UBHc9q8i3iW-1" parent="vCOpxWqH2UBHc9q8i3iW-0" />
        <mxCell id="vCOpxWqH2UBHc9q8i3iW-5" value="" style="edgeStyle=orthogonalEdgeStyle;rounded=0;orthogonalLoop=1;jettySize=auto;html=1;entryX=0.5;entryY=0;entryDx=0;entryDy=0;exitX=0.5;exitY=1;exitDx=0;exitDy=0;" edge="1" parent="vCOpxWqH2UBHc9q8i3iW-1" source="vCOpxWqH2UBHc9q8i3iW-3" target="vCOpxWqH2UBHc9q8i3iW-8">
          <mxGeometry relative="1" as="geometry" />
        </mxCell>
        <mxCell id="vCOpxWqH2UBHc9q8i3iW-3" value="创建ECI" style="rounded=1;whiteSpace=wrap;html=1;" vertex="1" parent="vCOpxWqH2UBHc9q8i3iW-1">
          <mxGeometry x="222" y="100" width="120" height="60" as="geometry" />
        </mxCell>
        <mxCell id="vCOpxWqH2UBHc9q8i3iW-14" value="" style="edgeStyle=orthogonalEdgeStyle;rounded=0;orthogonalLoop=1;jettySize=auto;html=1;" edge="1" parent="vCOpxWqH2UBHc9q8i3iW-1" source="vCOpxWqH2UBHc9q8i3iW-4" target="vCOpxWqH2UBHc9q8i3iW-13">
          <mxGeometry relative="1" as="geometry" />
        </mxCell>
        <mxCell id="vCOpxWqH2UBHc9q8i3iW-4" value="根据地域、云盘容量、文件系统类型等信息自动匹配快照" style="whiteSpace=wrap;html=1;rounded=1;" vertex="1" parent="vCOpxWqH2UBHc9q8i3iW-1">
          <mxGeometry x="120" y="280" width="120" height="60" as="geometry" />
        </mxCell>
        <mxCell id="vCOpxWqH2UBHc9q8i3iW-25" value="" style="edgeStyle=orthogonalEdgeStyle;rounded=0;orthogonalLoop=1;jettySize=auto;html=1;" edge="1" parent="vCOpxWqH2UBHc9q8i3iW-1" source="vCOpxWqH2UBHc9q8i3iW-6" target="vCOpxWqH2UBHc9q8i3iW-24">
          <mxGeometry relative="1" as="geometry" />
        </mxCell>
        <mxCell id="vCOpxWqH2UBHc9q8i3iW-6" value="通过快照创建云盘&lt;br&gt;创建计算资源" style="whiteSpace=wrap;html=1;rounded=1;" vertex="1" parent="vCOpxWqH2UBHc9q8i3iW-1">
          <mxGeometry x="120" y="500" width="120" height="60" as="geometry" />
        </mxCell>
        <mxCell id="vCOpxWqH2UBHc9q8i3iW-9" style="edgeStyle=orthogonalEdgeStyle;rounded=0;orthogonalLoop=1;jettySize=auto;html=1;exitX=0;exitY=0.5;exitDx=0;exitDy=0;entryX=0.5;entryY=0;entryDx=0;entryDy=0;" edge="1" parent="vCOpxWqH2UBHc9q8i3iW-1" source="vCOpxWqH2UBHc9q8i3iW-8" target="vCOpxWqH2UBHc9q8i3iW-4">
          <mxGeometry relative="1" as="geometry" />
        </mxCell>
        <mxCell id="vCOpxWqH2UBHc9q8i3iW-10" value="是" style="edgeLabel;html=1;align=center;verticalAlign=middle;resizable=0;points=[];" vertex="1" connectable="0" parent="vCOpxWqH2UBHc9q8i3iW-9">
          <mxGeometry x="0.2041" relative="1" as="geometry">
            <mxPoint as="offset" />
          </mxGeometry>
        </mxCell>
        <mxCell id="vCOpxWqH2UBHc9q8i3iW-27" value="" style="edgeStyle=orthogonalEdgeStyle;rounded=0;orthogonalLoop=1;jettySize=auto;html=1;" edge="1" parent="vCOpxWqH2UBHc9q8i3iW-1" source="vCOpxWqH2UBHc9q8i3iW-8" target="vCOpxWqH2UBHc9q8i3iW-26">
          <mxGeometry relative="1" as="geometry" />
        </mxCell>
        <mxCell id="vCOpxWqH2UBHc9q8i3iW-28" value="否" style="edgeLabel;html=1;align=center;verticalAlign=middle;resizable=0;points=[];" vertex="1" connectable="0" parent="vCOpxWqH2UBHc9q8i3iW-27">
          <mxGeometry x="-0.4483" y="1" relative="1" as="geometry">
            <mxPoint as="offset" />
          </mxGeometry>
        </mxCell>
        <mxCell id="vCOpxWqH2UBHc9q8i3iW-8" value="包含云盘卷" style="rhombus;whiteSpace=wrap;html=1;" vertex="1" parent="vCOpxWqH2UBHc9q8i3iW-1">
          <mxGeometry x="244" y="210" width="76" height="50" as="geometry" />
        </mxCell>
        <mxCell id="vCOpxWqH2UBHc9q8i3iW-15" value="" style="edgeStyle=orthogonalEdgeStyle;rounded=0;orthogonalLoop=1;jettySize=auto;html=1;" edge="1" parent="vCOpxWqH2UBHc9q8i3iW-1" source="vCOpxWqH2UBHc9q8i3iW-13" target="vCOpxWqH2UBHc9q8i3iW-6">
          <mxGeometry relative="1" as="geometry" />
        </mxCell>
        <mxCell id="vCOpxWqH2UBHc9q8i3iW-16" value="是" style="edgeLabel;html=1;align=center;verticalAlign=middle;resizable=0;points=[];" vertex="1" connectable="0" parent="vCOpxWqH2UBHc9q8i3iW-15">
          <mxGeometry x="-0.2" y="-2" relative="1" as="geometry">
            <mxPoint as="offset" />
          </mxGeometry>
        </mxCell>
        <mxCell id="vCOpxWqH2UBHc9q8i3iW-22" value="" style="edgeStyle=orthogonalEdgeStyle;rounded=0;orthogonalLoop=1;jettySize=auto;html=1;" edge="1" parent="vCOpxWqH2UBHc9q8i3iW-1" source="vCOpxWqH2UBHc9q8i3iW-13" target="vCOpxWqH2UBHc9q8i3iW-21">
          <mxGeometry relative="1" as="geometry" />
        </mxCell>
        <mxCell id="vCOpxWqH2UBHc9q8i3iW-23" value="否" style="edgeLabel;html=1;align=center;verticalAlign=middle;resizable=0;points=[];" vertex="1" connectable="0" parent="vCOpxWqH2UBHc9q8i3iW-22">
          <mxGeometry x="-0.2667" y="2" relative="1" as="geometry">
            <mxPoint as="offset" />
          </mxGeometry>
        </mxCell>
        <mxCell id="vCOpxWqH2UBHc9q8i3iW-13" value="匹配到快照" style="rhombus;whiteSpace=wrap;html=1;rounded=1;" vertex="1" parent="vCOpxWqH2UBHc9q8i3iW-1">
          <mxGeometry x="140" y="380" width="80" height="60" as="geometry" />
        </mxCell>
        <mxCell id="vCOpxWqH2UBHc9q8i3iW-21" value="&lt;meta charset=&quot;utf-8&quot;&gt;&lt;span style=&quot;color: rgb(0, 0, 0); font-family: helvetica; font-size: 12px; font-style: normal; font-weight: 400; letter-spacing: normal; text-align: center; text-indent: 0px; text-transform: none; word-spacing: 0px; background-color: rgb(248, 249, 250); display: inline; float: none;&quot;&gt;异步制作快照&lt;/span&gt;" style="shape=process;whiteSpace=wrap;html=1;backgroundOutline=1;rounded=1;" vertex="1" parent="vCOpxWqH2UBHc9q8i3iW-1">
          <mxGeometry x="280" y="380" width="120" height="60" as="geometry" />
        </mxCell>
        <mxCell id="vCOpxWqH2UBHc9q8i3iW-24" value="结束" style="ellipse;whiteSpace=wrap;html=1;rounded=1;" vertex="1" parent="vCOpxWqH2UBHc9q8i3iW-1">
          <mxGeometry x="155" y="610" width="50" height="40" as="geometry" />
        </mxCell>
        <mxCell id="vCOpxWqH2UBHc9q8i3iW-26" value="ECI创建流程" style="shape=process;whiteSpace=wrap;html=1;backgroundOutline=1;" vertex="1" parent="vCOpxWqH2UBHc9q8i3iW-1">
          <mxGeometry x="378" y="205" width="120" height="60" as="geometry" />
        </mxCell>
      </root>
    </mxGraphModel>
  </diagram>
</mxfile>
